Coordinates
version=1
nRows=11
nColumns=63
inDegrees=yes

Units are S.I. units (second, meters, Newtons, ...)
If the header above contains a line with 'inDegrees', this indicates whether rotational values are in degrees (yes) or radians (no).

endheader
time	pelvis_tilt	pelvis_list	pelvis_rotation	pelvis_tx	pelvis_ty	pelvis_tz	hip_flexion_r	hip_adduction_r	hip_rotation_r	knee_angle_r	knee_angle_r_beta	ankle_angle_r	subtalar_angle_r	mtp_angle_r	hip_flexion_l	hip_adduction_l	hip_rotation_l	knee_angle_l	knee_angle_l_beta	ankle_angle_l	subtalar_angle_l	mtp_angle_l	L5_S1_Flex_Ext	L5_S1_Lat_Bending	L5_S1_axial_rotation	L4_L5_Flex_Ext	L4_L5_Lat_Bending	L4_L5_axial_rotation	L3_L4_Flex_Ext	L3_L4_Lat_Bending	L3_L4_axial_rotation	L2_L3_Flex_Ext	L2_L3_Lat_Bending	L2_L3_axial_rotation	L1_L2_Flex_Ext	L1_L2_Lat_Bending	L1_L2_axial_rotation	L1_T12_Flex_Ext	L1_T12_Lat_Bending	L1_T12_axial_rotation	Abs_r3	Abs_r2	Abs_r1	Abs_t1	Abs_t2	neck_flexion	neck_bending	neck_rotation	arm_flex_r	arm_add_r	arm_rot_r	elbow_flex_r	pro_sup_r	wrist_flex_r	wrist_dev_r	arm_flex_l	arm_add_l	arm_rot_l	elbow_flex_l	pro_sup_l	wrist_flex_l	wrist_dev_l
      2.71153846	      0.86866909	     12.41809256	     97.54001748	      0.19797324	      0.99757638	      0.54819978	      1.33571751	      0.51241768	     -3.82093145	     31.01603528	      0.54133194	     32.83876458	     -5.31087790	      0.00000000	      6.91568758	     -1.36622251	      0.63401439	     39.89695081	      0.69633315	     34.17238444	     -7.14119043	      0.00000000	     -0.55151396	     -0.73478375	     -5.84211394	     -1.02421657	     -0.97726239	     -6.20724606	     -0.90608228	     -1.78655321	     -6.20724606	     -0.63032530	     -1.78655321	     -5.11184970	     -0.51213586	     -1.49837103	     -4.74671758	     -0.31513507	     -1.13818003	     -4.38158546	     -3.93940904	     -8.31202076	    -32.49208511	      0.00000000	      0.00000000	      4.09214920	     -5.66662229	     44.46493583	     72.63924210	     36.91348612	    152.72193855	      0.06281680	      0.61390857	    -69.86845694	    -24.59830814	    563.88249451	   -171.07033343	    532.90925190	    106.73128991	     89.57161948	    -15.82565117	      1.71458959
      2.73076923	      1.00318956	     12.14305670	     97.49622126	      0.19773126	      0.99946029	      0.54964504	      1.42596520	      0.59029585	     -3.95612993	     30.31956855	      0.52917630	     32.35035234	     -5.13642063	      0.00000000	      6.52893875	     -1.41953838	      0.75291816	     38.54485871	      0.67273469	     33.81725852	     -6.82161933	      0.00000000	     -0.45798504	     -0.74713959	     -5.73158889	     -0.85052402	     -0.99369565	     -6.08981319	     -0.75242362	     -1.81659519	     -6.08981319	     -0.52343110	     -1.81659519	     -5.01514028	     -0.42528491	     -1.52356704	     -4.65691597	     -0.26169265	     -1.15731922	     -4.29869167	     -3.27134134	     -8.45179242	    -31.87737793	      0.00000000	      0.00000000	      5.07865586	     -6.43569018	     44.42191547	     73.28797426	     36.68268120	    152.12902852	      0.06555402	      0.59872978	    -69.84832150	    -24.59975844	    566.64476188	   -171.60808995	    531.95023327	    103.59461703	     89.59773917	    -17.06337230	      3.19662391
      2.75000000	      1.16455394	     12.36777930	     95.91075267	      0.19902815	      1.00196339	      0.55062629	      1.06259488	      0.61708076	     -3.05692923	     29.68870622	      0.51816567	     32.14765666	     -3.77628602	      0.00000000	      5.25421061	     -1.67334647	     -0.62422207	     36.89211170	      0.64388882	     33.60568286	     -6.63755831	      0.00000000	     -0.47179008	     -0.75534427	     -5.13688740	     -0.87616136	     -1.00460788	     -5.45794286	     -0.77510392	     -1.83654406	     -5.45794286	     -0.53920888	     -1.83654406	     -4.49477647	     -0.43810427	     -1.54029804	     -4.17372101	     -0.26958085	     -1.17002828	     -3.85266555	     -3.36994936	     -8.54460548	    -28.56982664	      0.00000000	      0.00000000	      7.07144586	     -7.39718391	     44.21406808	     74.22148561	     35.57497067	    150.67930956	      0.07050213	      0.64001002	    -69.80930040	    -24.59075626	    570.40891562	   -172.50080197	    533.74536372	    100.97750134	     89.60535183	    -20.54226793	      5.69619416
      2.76923077	      1.73800063	     11.97390260	     95.81047350	      0.19780641	      1.00370567	      0.55083001	      1.03023619	      1.04630517	     -3.37688023	     28.68272624	      0.50060801	     31.67518953	     -3.25240566	      0.00000000	      4.92708335	     -2.05525923	     -0.24032071	     35.46612806	      0.61900071	     33.32728465	     -6.49372442	      0.00000000	     -0.41306207	     -0.72265086	     -4.66601865	     -0.76709758	     -0.96112565	     -4.95764481	     -0.67861968	     -1.75705331	     -4.95764481	     -0.47208864	     -1.75705331	     -4.08276632	     -0.38356944	     -1.47362964	     -3.79114015	     -0.23602367	     -1.11938619	     -3.49951399	     -2.95046109	     -8.17477110	    -25.95099592	      0.00000000	      0.00000000	      8.31775350	     -7.59962900	     43.84850619	     74.90743469	     33.27871255	    150.29955487	      0.07628815	      0.69044035	    -69.73999965	    -24.55068862	    573.78709314	   -175.35487449	    536.17448574	     99.14203745	     89.56771621	    -19.96285263	      7.37053454
      2.78846154	      2.17979107	     11.64258868	     94.37470859	      0.19839352	      1.00578297	      0.55016535	      1.01886192	      1.29698145	     -2.57468939	     27.84700904	      0.48602199	     31.24953880	     -2.26022840	      0.00000000	      4.05779683	     -2.47980960	     -1.48418576	     33.56696894	      0.58585413	     32.96085382	     -6.26489258	      0.00000000	     -0.34452299	     -0.73507158	     -3.89978248	     -0.63981365	     -0.97764520	     -4.14351889	     -0.56601682	     -1.78725304	     -4.14351889	     -0.39375533	     -1.78725304	     -3.41230967	     -0.31992405	     -1.49895797	     -3.16857327	     -0.19686044	     -1.13862588	     -2.92483686	     -2.46089328	     -8.31527675	    -21.68942022	      0.00000000	      0.00000000	      9.29503246	     -6.67748318	     43.30986427	     75.33657710	     30.23777184	    149.94427713	      0.08357388	      0.77788322	    -69.61591450	    -24.48407025	    576.44458435	   -178.82952769	    538.71898696	     98.67345628	     89.48429451	    -14.19034958	     10.57690219
      2.80769231	      2.85965325	     11.31753975	     94.24806710	      0.19743959	      1.00790237	      0.54985725	      0.78334770	      1.83072134	     -2.99417741	     26.70533119	      0.46609596	     30.47134491	     -1.76287841	      0.00000000	      3.52256022	     -3.03253615	     -1.22795927	     31.95030819	      0.55763807	     32.36480283	     -6.34913900	      0.00000000	     -0.27844045	     -0.73522813	     -3.41986546	     -0.51709176	     -0.97785342	     -3.63360705	     -0.45744982	     -1.78763369	     -3.63360705	     -0.31822959	     -1.78763369	     -2.99238227	     -0.25855980	     -1.49927721	     -2.77864068	     -0.15910087	     -1.13886838	     -2.56489909	     -1.98887229	     -8.31704770	    -19.02026570	      0.00000000	      0.00000000	      9.11827860	     -5.25042674	     42.96920701	     75.45721111	     26.77139287	    149.64359579	      0.09111881	      0.86527392	    -69.44175632	    -24.39344477	    578.60321547	   -181.07343983	    543.25307357	     98.04217507	     89.32085394	    -11.28986311	      9.23056080
      2.82692308	      2.99649204	     11.16904018	     93.19709995	      0.19810700	      1.01055857	      0.54993753	      0.54290269	      1.81479165	     -2.39632562	     25.91406648	      0.45228578	     29.59566475	     -1.36702535	      0.00000000	      2.36037309	     -3.15678792	     -2.38229373	     29.76654017	      0.51952413	     31.47431761	     -6.20462375	      0.00000000	     -0.22028919	     -0.81010492	     -2.89462196	     -0.40909906	     -1.07743955	     -3.07553584	     -0.36191312	     -1.96968911	     -3.07553584	     -0.25176852	     -1.96968911	     -2.53279422	     -0.20456055	     -1.65196596	     -2.35188034	     -0.12587325	     -1.25485252	     -2.17096647	     -1.57350368	     -9.16406889	    -16.09901897	      0.00000000	      0.00000000	      8.41330513	     -2.87765977	     43.11711361	     75.36304545	     23.48147906	    148.60774165	      0.09728249	      0.95698559	    -69.33446971	    -24.31246775	    580.19018924	   -181.97296418	    547.28663685	     97.40018393	     89.12169410	     -5.57010224	      4.15674557
      2.84615385	      3.20000541	     11.11610945	     92.89849872	      0.19844715	      1.01320473	      0.55048565	      0.12611463	      1.98647526	     -2.25838623	     25.02145310	      0.43670674	     28.43362108	     -1.67582741	      0.00000000	      1.31826080	     -3.43407975	     -3.10742886	     27.74562321	      0.48425248	     30.69915699	     -5.58381893	      0.00000000	     -0.18217026	     -0.87841055	     -2.61747975	     -0.33830839	     -1.16828604	     -2.78107224	     -0.29928752	     -2.13576742	     -2.78107224	     -0.20820239	     -2.13576742	     -2.29029478	     -0.16916330	     -1.79125480	     -2.12670230	     -0.10409209	     -1.36065795	     -1.96310981	     -1.30122395	     -9.93675586	    -14.55763713	      0.00000000	      0.00000000	      7.17754403	     -0.20600999	     43.56715580	     75.05032898	     20.25600217	    147.66053220	      0.09967563	      1.03366040	    -69.39414203	    -24.26043078	    581.65532063	   -180.79215770	    551.99637486	     97.85952250	     88.93387600	     -1.90833958	      0.35539732
      2.86538462	      3.27878564	     11.13442995	     93.16888775	      0.19852162	      1.01571554	      0.55142746	     -0.40953439	      2.07559261	     -2.64497548	     24.10263329	      0.42067031	     27.33787195	     -2.12753097	      0.00000000	      0.33600899	     -3.59746120	     -3.34744715	     25.74652106	      0.44936156	     30.03402999	     -4.84670555	      0.00000000	     -0.16248190	     -0.95536408	     -2.51022280	     -0.30174513	     -1.27063423	     -2.66711172	     -0.26694151	     -2.32287223	     -2.66711172	     -0.18570056	     -2.32287223	     -2.19644495	     -0.15088069	     -1.94817844	     -2.03955602	     -0.09284216	     -1.47985896	     -1.88266710	     -1.16059195	    -10.80726958	    -13.96110612	      0.00000000	      0.00000000	      6.32258478	      2.36398560	     43.90837138	     74.55513019	     17.08627620	    147.26320784	      0.09841544	      1.09259696	    -69.49786290	    -24.24657818	    582.98074318	   -178.18795764	    556.93277028	     99.83467501	     88.83874072	     -0.27697576	     -1.32550176
      2.88461538	      3.09443645	     11.18462278	     93.19869488	      0.19977701	      1.01811858	      0.55255928	     -0.80496282	      2.00355236	     -2.41880518	     23.53853007	      0.41082485	     26.26658993	     -2.95404617	      0.00000000	     -0.73164412	     -3.67745957	     -4.66134790	     23.71444323	      0.41389511	     29.79845356	     -2.93363865	      0.00000000	     -0.13559027	     -1.06318431	     -2.40888932	     -0.25180470	     -1.41403514	     -2.55944491	     -0.22276126	     -2.58502634	     -2.55944491	     -0.15496612	     -2.58502634	     -2.10777816	     -0.12590913	     -2.16804545	     -1.95722258	     -0.07747628	     -1.64687250	     -1.80666699	     -0.96850776	    -12.02695360	    -13.39751976	      0.00000000	      0.00000000	      6.49046225	      4.43694501	     44.02371299	     73.77998817	     14.21464801	    146.51305429	      0.09720877	      1.22591690	    -69.56580599	    -24.30755624	    584.39076852	   -174.40181521	    562.48975389	    103.08720473	     88.93824282	     -2.38054303	     -2.35655749
      2.90384615	      2.81664591	     11.36138645	     93.81547795	      0.20026977	      1.02041954	      0.55401552	     -1.39144796	      1.82380975	     -2.98707324	     22.93035311	      0.40021016	     25.35150268	     -3.43158776	      0.00000000	     -1.79823855	     -3.52832641	     -4.85380998	     21.69123338	      0.37858344	     29.48289920	     -1.63353837	      0.00000000	     -0.14499690	     -1.17131551	     -2.47487903	     -0.26927374	     -1.55784963	     -2.62955897	     -0.23821540	     -2.84793653	     -2.62955897	     -0.16571695	     -2.84793653	     -2.16551915	     -0.13464412	     -2.38854659	     -2.01083921	     -0.08285123	     -1.81436773	     -1.85615927	     -1.03569834	    -13.25015532	    -13.76453471	      0.00000000	      0.00000000	      7.83360261	      5.70019784	     43.92623437	     73.00554797	     11.63966712	    146.29144920	      0.09564138	      1.24851895	    -69.60431616	    -24.36209860	    585.51151637	   -170.60021224	    566.71477965	    107.64255987	     89.12737049	     -3.27122824	     -0.78854026
